<?xml version="1.0" encoding="UTF-8" standalone="no"?>
<!DOCTYPE svg PUBLIC "-//W3C//DTD SVG 1.1//EN"
 "http://www.w3.org/Graphics/SVG/1.1/DTD/svg11.dtd">
<!-- Generated by graphviz version 2.47.0 (20210316.1410)
 -->
<!-- Pages: 1 -->
<svg width="288pt" height="188pt"
 viewBox="0.00 0.00 287.64 188.00" xmlns="http://www.w3.org/2000/svg" xmlns:xlink="http://www.w3.org/1999/xlink">
<g id="graph0" class="graph" transform="scale(1 1) rotate(0) translate(4 184)">
<polygon fill="white" stroke="transparent" points="-4,4 -4,-184 283.64,-184 283.64,4 -4,4"/>
<!-- source_position -->
<g id="node1" class="node">
<title>source_position</title>
<ellipse fill="none" stroke="black" cx="83.19" cy="-162" rx="83.39" ry="18"/>
<text text-anchor="middle" x="83.19" y="-158.3" font-family="Times-Roman" font-size="14.00">source_position</text>
</g>
<!-- Ltotal -->
<g id="node2" class="node">
<title>Ltotal</title>
<ellipse fill="none" stroke="black" cx="157.19" cy="-90" rx="37.09" ry="18"/>
<text text-anchor="middle" x="157.19" y="-86.3" font-family="Times-Roman" font-size="14.00">Ltotal</text>
</g>
<!-- source_position&#45;&gt;Ltotal -->
<g id="edge1" class="edge">
<title>source_position&#45;&gt;Ltotal</title>
<path fill="none" stroke="black" d="M101.11,-144.05C110.88,-134.81 123.1,-123.25 133.64,-113.28"/>
<polygon fill="black" stroke="black" points="136.1,-115.77 140.96,-106.36 131.29,-110.69 136.1,-115.77"/>
</g>
<!-- wavelength -->
<g id="node4" class="node">
<title>wavelength</title>
<polygon fill="lightgrey" stroke="lightgrey" points="156.19,-36 56.19,-36 56.19,0 156.19,0 156.19,-36"/>
<text text-anchor="middle" x="106.19" y="-14.3" font-family="Times-Roman" font-size="14.00">wavelength</text>
</g>
<!-- Ltotal&#45;&gt;wavelength -->
<g id="edge4" class="edge">
<title>Ltotal&#45;&gt;wavelength</title>
<path fill="none" stroke="black" d="M145.36,-72.76C139.24,-64.35 131.61,-53.89 124.72,-44.44"/>
<polygon fill="black" stroke="black" points="127.39,-42.15 118.67,-36.12 121.73,-46.27 127.39,-42.15"/>
</g>
<!-- energy -->
<g id="node5" class="node">
<title>energy</title>
<polygon fill="lightgrey" stroke="lightgrey" points="241.69,-36 174.69,-36 174.69,0 241.69,0 241.69,-36"/>
<text text-anchor="middle" x="208.19" y="-14.3" font-family="Times-Roman" font-size="14.00">energy</text>
</g>
<!-- Ltotal&#45;&gt;energy -->
<g id="edge3" class="edge">
<title>Ltotal&#45;&gt;energy</title>
<path fill="none" stroke="black" d="M169.02,-72.76C175.15,-64.35 182.77,-53.89 189.66,-44.44"/>
<polygon fill="black" stroke="black" points="192.66,-46.27 195.72,-36.12 187,-42.15 192.66,-46.27"/>
</g>
<!-- position -->
<g id="node3" class="node">
<title>position</title>
<ellipse fill="none" stroke="black" cx="232.19" cy="-162" rx="47.39" ry="18"/>
<text text-anchor="middle" x="232.19" y="-158.3" font-family="Times-Roman" font-size="14.00">position</text>
</g>
<!-- position&#45;&gt;Ltotal -->
<g id="edge2" class="edge">
<title>position&#45;&gt;Ltotal</title>
<path fill="none" stroke="black" d="M215.17,-145.12C205.06,-135.68 192.08,-123.56 180.97,-113.19"/>
<polygon fill="black" stroke="black" points="183.33,-110.6 173.63,-106.34 178.55,-115.72 183.33,-110.6"/>
</g>
</g>
</svg>
