<?xml version="1.0" encoding="UTF-8" standalone="no"?>
<!DOCTYPE svg PUBLIC "-//W3C//DTD SVG 1.1//EN"
 "http://www.w3.org/Graphics/SVG/1.1/DTD/svg11.dtd">
<!-- Generated by graphviz version 2.47.1 (20210418.0311)
 -->
<!-- Pages: 1 -->
<svg width="606pt" height="458pt"
 viewBox="0.00 0.00 605.95 458.00" xmlns="http://www.w3.org/2000/svg" xmlns:xlink="http://www.w3.org/1999/xlink">
<g id="graph0" class="graph" transform="scale(1 1) rotate(0) translate(4 454)">
<polygon fill="white" stroke="transparent" points="-4,4 -4,-454 601.95,-454 601.95,4 -4,4"/>
<!-- source_position -->
<g id="node1" class="node">
<title>source_position</title>
<ellipse fill="none" stroke="black" cx="210.5" cy="-432" rx="83.39" ry="18"/>
<text text-anchor="middle" x="210.5" y="-428.3" font-family="Times-Roman" font-size="14.00">source_position</text>
</g>
<!-- incident_beam -->
<g id="node2" class="node">
<title>incident_beam</title>
<ellipse fill="none" stroke="black" cx="256.5" cy="-359" rx="79.09" ry="18"/>
<text text-anchor="middle" x="256.5" y="-355.3" font-family="Times-Roman" font-size="14.00">incident_beam</text>
</g>
<!-- source_position&#45;&gt;incident_beam -->
<g id="edge1" class="edge">
<title>source_position&#45;&gt;incident_beam</title>
<path fill="none" stroke="black" d="M221.64,-413.81C227.12,-405.35 233.83,-394.98 239.91,-385.61"/>
<polygon fill="black" stroke="black" points="242.97,-387.32 245.47,-377.03 237.09,-383.52 242.97,-387.32"/>
</g>
<!-- L1 -->
<g id="node6" class="node">
<title>L1</title>
<ellipse fill="none" stroke="black" cx="218.5" cy="-272" rx="27" ry="18"/>
<text text-anchor="middle" x="218.5" y="-268.3" font-family="Times-Roman" font-size="14.00">L1</text>
</g>
<!-- incident_beam&#45;&gt;L1 -->
<g id="edge5" class="edge">
<title>incident_beam&#45;&gt;L1</title>
<path fill="none" stroke="black" d="M248.81,-340.8C243.44,-328.78 236.16,-312.51 230.09,-298.92"/>
<polygon fill="black" stroke="black" points="233.2,-297.3 225.92,-289.6 226.81,-300.15 233.2,-297.3"/>
<text text-anchor="middle" x="260" y="-311.8" font-family="Times-Roman" font-size="14.00">norm</text>
</g>
<!-- two_theta -->
<g id="node9" class="node">
<title>two_theta</title>
<ellipse fill="none" stroke="black" cx="531.5" cy="-218" rx="57.39" ry="18"/>
<text text-anchor="middle" x="531.5" y="-214.3" font-family="Times-Roman" font-size="14.00">two_theta</text>
</g>
<!-- incident_beam&#45;&gt;two_theta -->
<g id="edge9" class="edge">
<title>incident_beam&#45;&gt;two_theta</title>
<path fill="none" stroke="black" d="M333.92,-354.77C370.42,-350.59 413.53,-341.68 448.5,-323 481.02,-305.63 505.26,-269.49 518.89,-244.74"/>
<polygon fill="black" stroke="black" points="522,-246.35 523.6,-235.88 515.82,-243.07 522,-246.35"/>
</g>
<!-- sample_position -->
<g id="node3" class="node">
<title>sample_position</title>
<ellipse fill="none" stroke="black" cx="398.5" cy="-432" rx="86.38" ry="18"/>
<text text-anchor="middle" x="398.5" y="-428.3" font-family="Times-Roman" font-size="14.00">sample_position</text>
</g>
<!-- sample_position&#45;&gt;incident_beam -->
<g id="edge2" class="edge">
<title>sample_position&#45;&gt;incident_beam</title>
<path fill="none" stroke="black" d="M366.63,-415.07C346.03,-404.76 319.02,-391.26 296.92,-380.21"/>
<polygon fill="black" stroke="black" points="298.28,-376.98 287.77,-375.64 295.15,-383.24 298.28,-376.98"/>
</g>
<!-- scattered_beam -->
<g id="node5" class="node">
<title>scattered_beam</title>
<ellipse fill="none" stroke="black" cx="505.5" cy="-359" rx="86.38" ry="18"/>
<text text-anchor="middle" x="505.5" y="-355.3" font-family="Times-Roman" font-size="14.00">scattered_beam</text>
</g>
<!-- sample_position&#45;&gt;scattered_beam -->
<g id="edge4" class="edge">
<title>sample_position&#45;&gt;scattered_beam</title>
<path fill="none" stroke="black" d="M423.05,-414.71C437.62,-405.04 456.3,-392.64 472.2,-382.1"/>
<polygon fill="black" stroke="black" points="474.3,-384.9 480.7,-376.46 470.43,-379.07 474.3,-384.9"/>
</g>
<!-- position -->
<g id="node4" class="node">
<title>position</title>
<ellipse fill="none" stroke="black" cx="550.5" cy="-432" rx="47.39" ry="18"/>
<text text-anchor="middle" x="550.5" y="-428.3" font-family="Times-Roman" font-size="14.00">position</text>
</g>
<!-- position&#45;&gt;scattered_beam -->
<g id="edge3" class="edge">
<title>position&#45;&gt;scattered_beam</title>
<path fill="none" stroke="black" d="M539.84,-414.17C534.48,-405.72 527.87,-395.29 521.89,-385.85"/>
<polygon fill="black" stroke="black" points="524.71,-383.77 516.4,-377.2 518.8,-387.52 524.71,-383.77"/>
</g>
<!-- L2 -->
<g id="node7" class="node">
<title>L2</title>
<ellipse fill="none" stroke="black" cx="290.5" cy="-272" rx="27" ry="18"/>
<text text-anchor="middle" x="290.5" y="-268.3" font-family="Times-Roman" font-size="14.00">L2</text>
</g>
<!-- scattered_beam&#45;&gt;L2 -->
<g id="edge6" class="edge">
<title>scattered_beam&#45;&gt;L2</title>
<path fill="none" stroke="black" d="M463.54,-343.11C427.03,-329.91 372.85,-309.71 326.5,-290 324.69,-289.23 322.83,-288.42 320.97,-287.59"/>
<polygon fill="black" stroke="black" points="322.25,-284.32 311.7,-283.35 319.33,-290.69 322.25,-284.32"/>
<text text-anchor="middle" x="425" y="-311.8" font-family="Times-Roman" font-size="14.00">norm</text>
</g>
<!-- scattered_beam&#45;&gt;two_theta -->
<g id="edge10" class="edge">
<title>scattered_beam&#45;&gt;two_theta</title>
<path fill="none" stroke="black" d="M509.59,-340.95C510.9,-335.26 512.32,-328.87 513.5,-323 518.72,-296.99 523.79,-267.14 527.21,-246.11"/>
<polygon fill="black" stroke="black" points="530.71,-246.41 528.85,-235.98 523.8,-245.3 530.71,-246.41"/>
</g>
<!-- Ltotal -->
<g id="node8" class="node">
<title>Ltotal</title>
<ellipse fill="none" stroke="black" cx="242.5" cy="-164" rx="37.09" ry="18"/>
<text text-anchor="middle" x="242.5" y="-160.3" font-family="Times-Roman" font-size="14.00">Ltotal</text>
</g>
<!-- L1&#45;&gt;Ltotal -->
<g id="edge7" class="edge">
<title>L1&#45;&gt;Ltotal</title>
<path fill="none" stroke="black" d="M222.36,-253.97C226.15,-237.2 232.01,-211.34 236.43,-191.81"/>
<polygon fill="black" stroke="black" points="239.86,-192.51 238.65,-181.99 233.03,-190.97 239.86,-192.51"/>
</g>
<!-- energy_transfer (direct) -->
<g id="node12" class="node">
<title>energy_transfer (direct)</title>
<polygon fill="lightgrey" stroke="lightgrey" points="187,-182 0,-182 0,-146 187,-146 187,-182"/>
<text text-anchor="middle" x="93.5" y="-160.3" font-family="Times-Roman" font-size="14.00">energy_transfer (direct)</text>
</g>
<!-- L1&#45;&gt;energy_transfer (direct) -->
<g id="edge12" class="edge">
<title>L1&#45;&gt;energy_transfer (direct)</title>
<path fill="none" stroke="black" d="M202.41,-257.36C181.95,-240 146.26,-209.74 121.34,-188.61"/>
<polygon fill="black" stroke="black" points="123.55,-185.89 113.66,-182.09 119.02,-191.23 123.55,-185.89"/>
</g>
<!-- energy_transfer (indirect) -->
<g id="node13" class="node">
<title>energy_transfer (indirect)</title>
<polygon fill="lightgrey" stroke="lightgrey" points="497.5,-182 297.5,-182 297.5,-146 497.5,-146 497.5,-182"/>
<text text-anchor="middle" x="397.5" y="-160.3" font-family="Times-Roman" font-size="14.00">energy_transfer (indirect)</text>
</g>
<!-- L1&#45;&gt;energy_transfer (indirect) -->
<g id="edge15" class="edge">
<title>L1&#45;&gt;energy_transfer (indirect)</title>
<path fill="none" stroke="black" d="M236.01,-258.14C256.63,-243.26 292.18,-218.45 324.5,-200 332.57,-195.4 341.34,-190.84 349.9,-186.6"/>
<polygon fill="black" stroke="black" points="351.61,-189.67 359.08,-182.15 348.56,-183.37 351.61,-189.67"/>
</g>
<!-- L2&#45;&gt;Ltotal -->
<g id="edge8" class="edge">
<title>L2&#45;&gt;Ltotal</title>
<path fill="none" stroke="black" d="M283,-254.44C275.33,-237.5 263.3,-210.94 254.35,-191.16"/>
<polygon fill="black" stroke="black" points="257.42,-189.46 250.11,-181.8 251.04,-192.35 257.42,-189.46"/>
</g>
<!-- L2&#45;&gt;energy_transfer (direct) -->
<g id="edge13" class="edge">
<title>L2&#45;&gt;energy_transfer (direct)</title>
<path fill="none" stroke="black" d="M271.74,-259.04C248.42,-244.38 207.21,-219.13 170.5,-200 161.51,-195.32 151.78,-190.62 142.35,-186.25"/>
<polygon fill="black" stroke="black" points="143.61,-182.98 133.06,-182 140.7,-189.34 143.61,-182.98"/>
</g>
<!-- L2&#45;&gt;energy_transfer (indirect) -->
<g id="edge16" class="edge">
<title>L2&#45;&gt;energy_transfer (indirect)</title>
<path fill="none" stroke="black" d="M304.93,-256.7C322.31,-239.49 351.77,-210.3 372.79,-189.48"/>
<polygon fill="black" stroke="black" points="375.47,-191.75 380.11,-182.22 370.55,-186.78 375.47,-191.75"/>
</g>
<!-- wavelength -->
<g id="node10" class="node">
<title>wavelength</title>
<polygon fill="lightgrey" stroke="lightgrey" points="292.5,-109 192.5,-109 192.5,-73 292.5,-73 292.5,-109"/>
<text text-anchor="middle" x="242.5" y="-87.3" font-family="Times-Roman" font-size="14.00">wavelength</text>
</g>
<!-- Ltotal&#45;&gt;wavelength -->
<g id="edge18" class="edge">
<title>Ltotal&#45;&gt;wavelength</title>
<path fill="none" stroke="black" d="M242.5,-145.81C242.5,-137.79 242.5,-128.05 242.5,-119.07"/>
<polygon fill="black" stroke="black" points="246,-119.03 242.5,-109.03 239,-119.03 246,-119.03"/>
</g>
<!-- energy -->
<g id="node11" class="node">
<title>energy</title>
<polygon fill="lightgrey" stroke="lightgrey" points="378,-109 311,-109 311,-73 378,-73 378,-109"/>
<text text-anchor="middle" x="344.5" y="-87.3" font-family="Times-Roman" font-size="14.00">energy</text>
</g>
<!-- Ltotal&#45;&gt;energy -->
<g id="edge11" class="edge">
<title>Ltotal&#45;&gt;energy</title>
<path fill="none" stroke="black" d="M263.14,-148.63C276.99,-138.99 295.54,-126.08 311.43,-115.02"/>
<polygon fill="black" stroke="black" points="313.73,-117.69 319.93,-109.1 309.73,-111.94 313.73,-117.69"/>
</g>
<!-- dspacing -->
<g id="node14" class="node">
<title>dspacing</title>
<polygon fill="lightgrey" stroke="lightgrey" points="506.5,-109 426.5,-109 426.5,-73 506.5,-73 506.5,-109"/>
<text text-anchor="middle" x="466.5" y="-87.3" font-family="Times-Roman" font-size="14.00">dspacing</text>
</g>
<!-- Ltotal&#45;&gt;dspacing -->
<g id="edge19" class="edge">
<title>Ltotal&#45;&gt;dspacing</title>
<path fill="none" stroke="black" d="M271.12,-152.13C276.85,-150.03 282.85,-147.9 288.5,-146 331.45,-131.56 380.79,-116.73 416.61,-106.27"/>
<polygon fill="black" stroke="black" points="417.72,-109.6 426.34,-103.44 415.76,-102.87 417.72,-109.6"/>
</g>
<!-- two_theta&#45;&gt;dspacing -->
<g id="edge20" class="edge">
<title>two_theta&#45;&gt;dspacing</title>
<path fill="none" stroke="black" d="M527,-199.76C522.79,-185 515.75,-163.43 506.5,-146 501.19,-136 494.17,-125.83 487.48,-117.05"/>
<polygon fill="black" stroke="black" points="490.18,-114.81 481.25,-109.11 484.67,-119.13 490.18,-114.81"/>
</g>
<!-- Q -->
<g id="node15" class="node">
<title>Q</title>
<polygon fill="lightgrey" stroke="lightgrey" points="429.5,-36 375.5,-36 375.5,0 429.5,0 429.5,-36"/>
<text text-anchor="middle" x="402.5" y="-14.3" font-family="Times-Roman" font-size="14.00">Q</text>
</g>
<!-- two_theta&#45;&gt;Q -->
<g id="edge21" class="edge">
<title>two_theta&#45;&gt;Q</title>
<path fill="none" stroke="black" d="M534.72,-199.92C539.21,-170.75 543.89,-110.82 515.5,-73 497.18,-48.59 464.97,-34.72 439.62,-27.16"/>
<polygon fill="black" stroke="black" points="440.51,-23.77 429.94,-24.48 438.64,-30.52 440.51,-23.77"/>
</g>
<!-- wavelength&#45;&gt;Q -->
<g id="edge22" class="edge">
<title>wavelength&#45;&gt;Q</title>
<path fill="none" stroke="black" d="M280.82,-72.99C306.56,-61.57 340.29,-46.6 365.71,-35.33"/>
<polygon fill="black" stroke="black" points="367.29,-38.45 375.01,-31.2 364.45,-32.06 367.29,-38.45"/>
</g>
<!-- incident_energy -->
<g id="node16" class="node">
<title>incident_energy</title>
<ellipse fill="none" stroke="black" cx="88.5" cy="-272" rx="85.29" ry="18"/>
<text text-anchor="middle" x="88.5" y="-268.3" font-family="Times-Roman" font-size="14.00">incident_energy</text>
</g>
<!-- incident_energy&#45;&gt;energy_transfer (direct) -->
<g id="edge14" class="edge">
<title>incident_energy&#45;&gt;energy_transfer (direct)</title>
<path fill="none" stroke="black" d="M89.3,-253.97C90.09,-237.38 91.29,-211.88 92.21,-192.43"/>
<polygon fill="black" stroke="black" points="95.71,-192.49 92.68,-182.34 88.71,-192.16 95.71,-192.49"/>
</g>
<!-- final_energy -->
<g id="node17" class="node">
<title>final_energy</title>
<ellipse fill="none" stroke="black" cx="403.5" cy="-272" rx="68.49" ry="18"/>
<text text-anchor="middle" x="403.5" y="-268.3" font-family="Times-Roman" font-size="14.00">final_energy</text>
</g>
<!-- final_energy&#45;&gt;energy_transfer (indirect) -->
<g id="edge17" class="edge">
<title>final_energy&#45;&gt;energy_transfer (indirect)</title>
<path fill="none" stroke="black" d="M402.54,-253.97C401.6,-237.38 400.15,-211.88 399.05,-192.43"/>
<polygon fill="black" stroke="black" points="402.54,-192.13 398.48,-182.34 395.55,-192.52 402.54,-192.13"/>
</g>
</g>
</svg>
